# xmcd CD database file
#
# Track frame offsets:
#	150
#	14835
#	31902
#	51867
#	66336
#	84971
#	104734
#	119642
#	135999
#	152028
#	172641
#	188886
#	204748
#	222498
#
# Disc length: 3140 seconds
#
# Revision: 1
# Processed by: cddbd v1.4PL0 Copyright (c) Steve Scherf et al.
# Submitted via: CDex 1.40Beta9
#
DISCID=c90c420e
DTITLE=ROGER and ROGÉRIO - ROGER and ROGÉRIO
DYEAR=1900
DGENRE=Country
TTITLE0=Sem Saída
TTITLE1=Fica com ele
TTITLE2=Dona da minha paixão
TTITLE3=Vevier sem você não dá
TTITLE4=Cover
TTITLE5=Cover
TTITLE6=Cover
TTITLE7=Cover
TTITLE8=Cover
TTITLE9=Cover
TTITLE10=Cover
TTITLE11=Cover
TTITLE12=Cover
TTITLE13=Cover
EXTD=ID3G: 2
EXTT0=
EXTT1=
EXTT2=
EXTT3=
EXTT4=
EXTT5=
EXTT6=
EXTT7=
EXTT8=
EXTT9=
EXTT10=
EXTT11=
EXTT12=
EXTT13=
PLAYORDER=
